<svg class="railroad-diagram" width="464" height="80" viewBox="0 0 464 80" xmlns="http://www.w3.org/2000/svg" xmlns:xlink="http://www.w3.org/1999/xlink">
<g transform="translate(.5 .5)">
<g>
<path d="M20 30v20m10 -20v20m-10 -10h20"></path>
</g>
<path d="M40 40h10"></path>
<g class="terminal ">
<path d="M50 40h0"></path>
<path d="M155 40h0"></path>
<rect x="50" y="29" width="105" height="22" rx="10" ry="10"></rect>
<text x="102.5" y="44">deleteFrom</text>
</g>
<path d="M155 40h10"></path>
<g>
<path d="M165 40h0"></path>
<path d="M287.5 40h0"></path>
<path d="M165 40a10 10 0 0 0 10 -10v0a10 10 0 0 1 10 -10"></path>
<g>
<path d="M185 20h82.5"></path>
</g>
<path d="M267.5 20a10 10 0 0 1 10 10v0a10 10 0 0 0 10 10"></path>
<path d="M165 40h20"></path>
<g>
<path d="M185 40h0"></path>
<path d="M267.5 40h0"></path>
<path d="M185 40h10"></path>
<g class="terminal ">
<path d="M195 40h0"></path>
<path d="M257.5 40h0"></path>
<rect x="195" y="29" width="62.5" height="22" rx="10" ry="10"></rect>
<text x="226.25" y="44">where</text>
</g>
<path d="M257.5 40h10"></path>
<path d="M195 40a10 10 0 0 0 -10 10v0a10 10 0 0 0 10 10"></path>
<g>
<path d="M195 60h62.5"></path>
</g>
<path d="M257.5 60a10 10 0 0 0 10 -10v0a10 10 0 0 0 -10 -10"></path>
</g>
<path d="M267.5 40h20"></path>
</g>
<g>
<path d="M287.5 40h0"></path>
<path d="M424 40h0"></path>
<path d="M287.5 40a10 10 0 0 0 10 -10v0a10 10 0 0 1 10 -10"></path>
<g>
<path d="M307.5 20h96.5"></path>
</g>
<path d="M404 20a10 10 0 0 1 10 10v0a10 10 0 0 0 10 10"></path>
<path d="M287.5 40h20"></path>
<g class="terminal ">
<path d="M307.5 40h0"></path>
<path d="M404 40h0"></path>
<rect x="307.5" y="29" width="96.5" height="22" rx="10" ry="10"></rect>
<text x="355.75" y="44">returning</text>
</g>
<path d="M404 40h20"></path>
</g>
<path d="M 424 40 h 20 m -10 -10 v 20 m 10 -20 v 20"></path>
</g>
<style>
	svg {
		background-color: hsl(30,20%,95%);
	}
	path {
		stroke-width: 3;
		stroke: black;
		fill: rgba(0,0,0,0);
	}
	text {
		font: bold 14px monospace;
		text-anchor: middle;
		white-space: pre;
	}
	text.diagram-text {
		font-size: 12px;
	}
	text.diagram-arrow {
		font-size: 16px;
	}
	text.label {
		text-anchor: start;
	}
	text.comment {
		font: italic 12px monospace;
	}
	g.non-terminal text {
		/&#42;font-style: italic;&#42;/
	}
	rect {
		stroke-width: 3;
		stroke: black;
		fill: hsl(120,100%,90%);
	}
	rect.group-box {
		stroke: gray;
		stroke-dasharray: 10 5;
		fill: none;
	}
	path.diagram-text {
		stroke-width: 3;
		stroke: black;
		fill: white;
		cursor: help;
	}
	g.diagram-text:hover path.diagram-text {
		fill: #eee;
	}</style>
</svg>
