<svg class="railroad-diagram" width="435.5" height="101" viewBox="0 0 435.5 101" xmlns="http://www.w3.org/2000/svg" xmlns:xlink="http://www.w3.org/1999/xlink">
<g transform="translate(.5 .5)">
<g>
<path d="M20 30v20m10 -20v20m-10 -10h20"></path>
</g>
<path d="M40 40h10"></path>
<g class="terminal ">
<path d="M50 40h0"></path>
<path d="M104 40h0"></path>
<rect x="50" y="29" width="54" height="22" rx="10" ry="10"></rect>
<text x="77" y="44">into</text>
</g>
<path d="M104 40h10"></path>
<g>
<path d="M114 40h0"></path>
<path d="M259 40h0"></path>
<path d="M114 40h20"></path>
<g class="terminal ">
<path d="M134 40h17"></path>
<path d="M222 40h17"></path>
<rect x="151" y="29" width="71" height="22" rx="10" ry="10"></rect>
<text x="186.5" y="44">insert</text>
</g>
<path d="M239 40h20"></path>
<path d="M114 40a10 10 0 0 1 10 10v10a10 10 0 0 0 10 10"></path>
<g class="terminal ">
<path d="M134 70h0"></path>
<path d="M239 70h0"></path>
<rect x="134" y="59" width="105" height="22" rx="10" ry="10"></rect>
<text x="186.5" y="74">insertFrom</text>
</g>
<path d="M239 70a10 10 0 0 0 10 -10v-10a10 10 0 0 1 10 -10"></path>
</g>
<g>
<path d="M259 40h0"></path>
<path d="M395.5 40h0"></path>
<path d="M259 40a10 10 0 0 0 10 -10v0a10 10 0 0 1 10 -10"></path>
<g>
<path d="M279 20h96.5"></path>
</g>
<path d="M375.5 20a10 10 0 0 1 10 10v0a10 10 0 0 0 10 10"></path>
<path d="M259 40h20"></path>
<g class="terminal ">
<path d="M279 40h0"></path>
<path d="M375.5 40h0"></path>
<rect x="279" y="29" width="96.5" height="22" rx="10" ry="10"></rect>
<text x="327.25" y="44">returning</text>
</g>
<path d="M375.5 40h20"></path>
</g>
<path d="M 395.5 40 h 20 m -10 -10 v 20 m 10 -20 v 20"></path>
</g>
<style>
	svg {
		background-color: hsl(30,20%,95%);
	}
	path {
		stroke-width: 3;
		stroke: black;
		fill: rgba(0,0,0,0);
	}
	text {
		font: bold 14px monospace;
		text-anchor: middle;
		white-space: pre;
	}
	text.diagram-text {
		font-size: 12px;
	}
	text.diagram-arrow {
		font-size: 16px;
	}
	text.label {
		text-anchor: start;
	}
	text.comment {
		font: italic 12px monospace;
	}
	g.non-terminal text {
		/&#42;font-style: italic;&#42;/
	}
	rect {
		stroke-width: 3;
		stroke: black;
		fill: hsl(120,100%,90%);
	}
	rect.group-box {
		stroke: gray;
		stroke-dasharray: 10 5;
		fill: none;
	}
	path.diagram-text {
		stroke-width: 3;
		stroke: black;
		fill: white;
		cursor: help;
	}
	g.diagram-text:hover path.diagram-text {
		fill: #eee;
	}</style>
</svg>
