<svg class="railroad-diagram" width="1041" height="270" viewBox="0 0 1041 270" xmlns="http://www.w3.org/2000/svg" xmlns:xlink="http://www.w3.org/1999/xlink">
<g transform="translate(.5 .5)">
<g>
<path d="M20 54v20m10 -20v20m-10 -10h20"></path>
</g>
<g>
<path d="M40 64h0"></path>
<path d="M134 64h0"></path>
<path d="M40 64a10 10 0 0 0 10 -10v0a10 10 0 0 1 10 -10"></path>
<g>
<path d="M60 44h54"></path>
</g>
<path d="M114 44a10 10 0 0 1 10 10v0a10 10 0 0 0 10 10"></path>
<path d="M40 64h20"></path>
<g class="terminal ">
<path d="M60 64h0"></path>
<path d="M114 64h0"></path>
<rect x="60" y="53" width="54" height="22" rx="10" ry="10"></rect>
<text x="87" y="68">from</text>
</g>
<path d="M114 64h20"></path>
</g>
<g>
<path d="M134 64h0"></path>
<path d="M256.5 64h0"></path>
<path d="M134 64a10 10 0 0 0 10 -10v0a10 10 0 0 1 10 -10"></path>
<g>
<path d="M154 44h82.5"></path>
</g>
<path d="M236.5 44a10 10 0 0 1 10 10v0a10 10 0 0 0 10 10"></path>
<path d="M134 64h20"></path>
<g>
<path d="M154 64h0"></path>
<path d="M236.5 64h0"></path>
<path d="M154 64h10"></path>
<g class="terminal ">
<path d="M164 64h0"></path>
<path d="M226.5 64h0"></path>
<rect x="164" y="53" width="62.5" height="22" rx="10" ry="10"></rect>
<text x="195.25" y="68">where</text>
</g>
<path d="M226.5 64h10"></path>
<path d="M164 64a10 10 0 0 0 -10 10v0a10 10 0 0 0 10 10"></path>
<g>
<path d="M164 84h62.5"></path>
</g>
<path d="M226.5 84a10 10 0 0 0 10 -10v0a10 10 0 0 0 -10 -10"></path>
</g>
<path d="M236.5 64h20"></path>
</g>
<g>
<path d="M256.5 64h0"></path>
<path d="M517 64h0"></path>
<path d="M256.5 64h20"></path>
<g>
<path d="M276.5 64h220.5"></path>
</g>
<path d="M497 64h20"></path>
<path d="M256.5 64a10 10 0 0 1 10 10v8a10 10 0 0 0 10 10"></path>
<g>
<path d="M276.5 92h0"></path>
<path d="M497 92h0"></path>
<g class="terminal ">
<path d="M276.5 92h0"></path>
<path d="M356 92h0"></path>
<rect x="276.5" y="81" width="79.5" height="22" rx="10" ry="10"></rect>
<text x="316.25" y="96">groupBy</text>
</g>
<path d="M356 92h10"></path>
<g>
<path d="M366 92h0"></path>
<path d="M497 92h0"></path>
<path d="M366 92a10 10 0 0 0 10 -10v0a10 10 0 0 1 10 -10"></path>
<g>
<path d="M386 72h91"></path>
</g>
<path d="M477 72a10 10 0 0 1 10 10v0a10 10 0 0 0 10 10"></path>
<path d="M366 92h20"></path>
<g>
<path d="M386 92h0"></path>
<path d="M477 92h0"></path>
<path d="M386 92h10"></path>
<g class="terminal ">
<path d="M396 92h0"></path>
<path d="M467 92h0"></path>
<rect x="396" y="81" width="71" height="22" rx="10" ry="10"></rect>
<text x="431.5" y="96">having</text>
</g>
<path d="M467 92h10"></path>
<path d="M396 92a10 10 0 0 0 -10 10v0a10 10 0 0 0 10 10"></path>
<g>
<path d="M396 112h71"></path>
</g>
<path d="M467 112a10 10 0 0 0 10 -10v0a10 10 0 0 0 -10 -10"></path>
</g>
<path d="M477 92h20"></path>
</g>
</g>
<path d="M497 92a10 10 0 0 0 10 -10v-8a10 10 0 0 1 10 -10"></path>
</g>
<path d="M517 64h10"></path>
<g class="terminal ">
<path d="M527 64h0"></path>
<path d="M598 64h0"></path>
<rect x="527" y="53" width="71" height="22" rx="10" ry="10"></rect>
<text x="562.5" y="68">select</text>
</g>
<path d="M598 64h10"></path>
<g>
<path d="M608 64h0"></path>
<path d="M1001 64h0"></path>
<path d="M608 64a10 10 0 0 0 10 -10v-24a10 10 0 0 1 10 -10"></path>
<g>
<path d="M628 20h10"></path>
<path d="M971 20h10"></path>
<g>
<path d="M638 20h0"></path>
<path d="M757.5 20h0"></path>
<path d="M638 20h20"></path>
<g>
<path d="M658 20h79.5"></path>
</g>
<path d="M737.5 20h20"></path>
<path d="M638 20a10 10 0 0 1 10 10v0a10 10 0 0 0 10 10"></path>
<g class="terminal ">
<path d="M658 40h0"></path>
<path d="M737.5 40h0"></path>
<rect x="658" y="29" width="79.5" height="22" rx="10" ry="10"></rect>
<text x="697.75" y="44">orderBy</text>
</g>
<path d="M737.5 40a10 10 0 0 0 10 -10v0a10 10 0 0 1 10 -10"></path>
</g>
<g>
<path d="M757.5 20h0"></path>
<path d="M860 20h0"></path>
<path d="M757.5 20h20"></path>
<g>
<path d="M777.5 20h62.5"></path>
</g>
<path d="M840 20h20"></path>
<path d="M757.5 20a10 10 0 0 1 10 10v0a10 10 0 0 0 10 10"></path>
<g class="terminal ">
<path d="M777.5 40h0"></path>
<path d="M840 40h0"></path>
<rect x="777.5" y="29" width="62.5" height="22" rx="10" ry="10"></rect>
<text x="808.75" y="44">limit</text>
</g>
<path d="M840 40a10 10 0 0 0 10 -10v0a10 10 0 0 1 10 -10"></path>
</g>
<g>
<path d="M860 20h0"></path>
<path d="M971 20h0"></path>
<path d="M860 20h20"></path>
<g>
<path d="M880 20h71"></path>
</g>
<path d="M951 20h20"></path>
<path d="M860 20a10 10 0 0 1 10 10v0a10 10 0 0 0 10 10"></path>
<g class="terminal ">
<path d="M880 40h0"></path>
<path d="M951 40h0"></path>
<rect x="880" y="29" width="71" height="22" rx="10" ry="10"></rect>
<text x="915.5" y="44">offset</text>
</g>
<path d="M951 40a10 10 0 0 0 10 -10v0a10 10 0 0 1 10 -10"></path>
</g>
</g>
<path d="M981 20a10 10 0 0 1 10 10v24a10 10 0 0 0 10 10"></path>
<path d="M608 64a10 10 0 0 1 10 10v5a10 10 0 0 0 10 10"></path>
<g>
<path d="M628 89h95.5"></path>
<path d="M885.5 89h95.5"></path>
<path d="M723.5 89h20"></path>
<g class="terminal ">
<path d="M743.5 89h29.75"></path>
<path d="M835.75 89h29.75"></path>
<rect x="773.25" y="78" width="62.5" height="22" rx="10" ry="10"></rect>
<text x="804.5" y="93">union</text>
</g>
<path d="M865.5 89h20"></path>
<path d="M723.5 89a10 10 0 0 1 10 10v10a10 10 0 0 0 10 10"></path>
<g class="terminal ">
<path d="M743.5 119h17"></path>
<path d="M848.5 119h17"></path>
<rect x="760.5" y="108" width="88" height="22" rx="10" ry="10"></rect>
<text x="804.5" y="123">unionAll</text>
</g>
<path d="M865.5 119a10 10 0 0 0 10 -10v-10a10 10 0 0 1 10 -10"></path>
<path d="M723.5 89a10 10 0 0 1 10 10v40a10 10 0 0 0 10 10"></path>
<g class="terminal ">
<path d="M743.5 149h12.75"></path>
<path d="M852.75 149h12.75"></path>
<rect x="756.25" y="138" width="96.5" height="22" rx="10" ry="10"></rect>
<text x="804.5" y="153">intersect</text>
</g>
<path d="M865.5 149a10 10 0 0 0 10 -10v-40a10 10 0 0 1 10 -10"></path>
<path d="M723.5 89a10 10 0 0 1 10 10v70a10 10 0 0 0 10 10"></path>
<g class="terminal ">
<path d="M743.5 179h0"></path>
<path d="M865.5 179h0"></path>
<rect x="743.5" y="168" width="122" height="22" rx="10" ry="10"></rect>
<text x="804.5" y="183">intersectAll</text>
</g>
<path d="M865.5 179a10 10 0 0 0 10 -10v-70a10 10 0 0 1 10 -10"></path>
<path d="M723.5 89a10 10 0 0 1 10 10v100a10 10 0 0 0 10 10"></path>
<g class="terminal ">
<path d="M743.5 209h25.5"></path>
<path d="M840 209h25.5"></path>
<rect x="769" y="198" width="71" height="22" rx="10" ry="10"></rect>
<text x="804.5" y="213">except</text>
</g>
<path d="M865.5 209a10 10 0 0 0 10 -10v-100a10 10 0 0 1 10 -10"></path>
<path d="M723.5 89a10 10 0 0 1 10 10v130a10 10 0 0 0 10 10"></path>
<g class="terminal ">
<path d="M743.5 239h12.75"></path>
<path d="M852.75 239h12.75"></path>
<rect x="756.25" y="228" width="96.5" height="22" rx="10" ry="10"></rect>
<text x="804.5" y="243">exceptAll</text>
</g>
<path d="M865.5 239a10 10 0 0 0 10 -10v-130a10 10 0 0 1 10 -10"></path>
</g>
<path d="M981 89a10 10 0 0 0 10 -10v-5a10 10 0 0 1 10 -10"></path>
<path d="M618 49a10 10 0 0 0 10 10h167.35786437626905a 10 10 0 0 1 7.071067811865475 2.9289321881345254l4.142135623730949 4.142135623730949a 10 10 0 0 0 7.071067811865475 2.9289321881345254h167.35786437626905a10 10 0 0 1 10 10"></path>
<path d="M618 79a10 10 0 0 1 10 -10h167.35786437626905a 10 10 0 0 0 7.071067811865475 -2.9289321881345254l4.142135623730949 -4.142135623730949a 10 10 0 0 1 7.071067811865475 -2.9289321881345254h167.35786437626905a10 10 0 0 0 10 -10"></path>
</g>
<path d="M 1001 64 h 20 m -10 -10 v 20 m 10 -20 v 20"></path>
</g>
<style>
	svg {
		background-color: hsl(30,20%,95%);
	}
	path {
		stroke-width: 3;
		stroke: black;
		fill: rgba(0,0,0,0);
	}
	text {
		font: bold 14px monospace;
		text-anchor: middle;
		white-space: pre;
	}
	text.diagram-text {
		font-size: 12px;
	}
	text.diagram-arrow {
		font-size: 16px;
	}
	text.label {
		text-anchor: start;
	}
	text.comment {
		font: italic 12px monospace;
	}
	g.non-terminal text {
		/&#42;font-style: italic;&#42;/
	}
	rect {
		stroke-width: 3;
		stroke: black;
		fill: hsl(120,100%,90%);
	}
	rect.group-box {
		stroke: gray;
		stroke-dasharray: 10 5;
		fill: none;
	}
	path.diagram-text {
		stroke-width: 3;
		stroke: black;
		fill: white;
		cursor: help;
	}
	g.diagram-text:hover path.diagram-text {
		fill: #eee;
	}</style>
</svg>
