<svg class="railroad-diagram" width="576" height="182" viewBox="0 0 576 182" xmlns="http://www.w3.org/2000/svg" xmlns:xlink="http://www.w3.org/1999/xlink">
<g transform="translate(.5 .5)">
<g>
<path d="M20 51v20m10 -20v20m-10 -10h20"></path>
</g>
<g>
<path d="M40 61h0"></path>
<path d="M536 61h0"></path>
<path d="M40 61h20"></path>
<g>
<path d="M60 61h0"></path>
<path d="M516 61h0"></path>
<g>
<path d="M60 61h0"></path>
<path d="M230.5 61h0"></path>
<path d="M60 61h20"></path>
<g>
<path d="M80 61h130.5"></path>
</g>
<path d="M210.5 61h20"></path>
<path d="M60 61a10 10 0 0 1 10 10v0a10 10 0 0 0 10 10"></path>
<g class="terminal ">
<path d="M80 81h38.25"></path>
<path d="M172.25 81h38.25"></path>
<rect x="118.25" y="70" width="54" height="22" rx="10" ry="10"></rect>
<text x="145.25" y="85">with</text>
</g>
<path d="M210.5 81a10 10 0 0 0 10 -10v0a10 10 0 0 1 10 -10"></path>
<path d="M60 61a10 10 0 0 1 10 10v30a10 10 0 0 0 10 10"></path>
<g class="terminal ">
<path d="M80 111h0"></path>
<path d="M210.5 111h0"></path>
<rect x="80" y="100" width="130.5" height="22" rx="10" ry="10"></rect>
<text x="145.25" y="115">withRecursive</text>
</g>
<path d="M210.5 111a10 10 0 0 0 10 -10v-30a10 10 0 0 1 10 -10"></path>
</g>
<g>
<path d="M230.5 61h0"></path>
<path d="M426.5 61h0"></path>
<path d="M230.5 61a10 10 0 0 0 10 -10v-10a10 10 0 0 1 10 -10"></path>
<g class="non-terminal ">
<path d="M250.5 31h0"></path>
<path d="M406.5 31h0"></path>
<rect x="250.5" y="20" width="156" height="22"></rect>
<text x="328.5" y="35">Insert Statement</text>
</g>
<path d="M406.5 31a10 10 0 0 1 10 10v10a10 10 0 0 0 10 10"></path>
<path d="M230.5 61h20"></path>
<g class="non-terminal ">
<path d="M250.5 61h0"></path>
<path d="M406.5 61h0"></path>
<rect x="250.5" y="50" width="156" height="22"></rect>
<text x="328.5" y="65">Select Statement</text>
</g>
<path d="M406.5 61h20"></path>
<path d="M230.5 61a10 10 0 0 1 10 10v10a10 10 0 0 0 10 10"></path>
<g class="non-terminal ">
<path d="M250.5 91h0"></path>
<path d="M406.5 91h0"></path>
<rect x="250.5" y="80" width="156" height="22"></rect>
<text x="328.5" y="95">Update Statement</text>
</g>
<path d="M406.5 91a10 10 0 0 0 10 -10v-10a10 10 0 0 1 10 -10"></path>
<path d="M230.5 61a10 10 0 0 1 10 10v40a10 10 0 0 0 10 10"></path>
<g class="non-terminal ">
<path d="M250.5 121h0"></path>
<path d="M406.5 121h0"></path>
<rect x="250.5" y="110" width="156" height="22"></rect>
<text x="328.5" y="125">Delete Statement</text>
</g>
<path d="M406.5 121a10 10 0 0 0 10 -10v-40a10 10 0 0 1 10 -10"></path>
</g>
<path d="M426.5 61h10"></path>
<g class="terminal ">
<path d="M436.5 61h0"></path>
<path d="M516 61h0"></path>
<rect x="436.5" y="50" width="79.5" height="22" rx="10" ry="10"></rect>
<text x="476.25" y="65">execute</text>
</g>
</g>
<path d="M516 61h20"></path>
<path d="M40 61a10 10 0 0 1 10 10v70a10 10 0 0 0 10 10"></path>
<g class="terminal ">
<path d="M60 151h205.25"></path>
<path d="M310.75 151h205.25"></path>
<rect x="265.25" y="140" width="45.5" height="22" rx="10" ry="10"></rect>
<text x="288" y="155">raw</text>
</g>
<path d="M516 151a10 10 0 0 0 10 -10v-70a10 10 0 0 1 10 -10"></path>
</g>
<path d="M 536 61 h 20 m -10 -10 v 20 m 10 -20 v 20"></path>
</g>
<style>
	svg {
		background-color: hsl(30,20%,95%);
	}
	path {
		stroke-width: 3;
		stroke: black;
		fill: rgba(0,0,0,0);
	}
	text {
		font: bold 14px monospace;
		text-anchor: middle;
		white-space: pre;
	}
	text.diagram-text {
		font-size: 12px;
	}
	text.diagram-arrow {
		font-size: 16px;
	}
	text.label {
		text-anchor: start;
	}
	text.comment {
		font: italic 12px monospace;
	}
	g.non-terminal text {
		/&#42;font-style: italic;&#42;/
	}
	rect {
		stroke-width: 3;
		stroke: black;
		fill: hsl(120,100%,90%);
	}
	rect.group-box {
		stroke: gray;
		stroke-dasharray: 10 5;
		fill: none;
	}
	path.diagram-text {
		stroke-width: 3;
		stroke: black;
		fill: white;
		cursor: help;
	}
	g.diagram-text:hover path.diagram-text {
		fill: #eee;
	}</style>
</svg>
