<svg class="railroad-diagram" width="598" height="91" viewBox="0 0 598 91" xmlns="http://www.w3.org/2000/svg" xmlns:xlink="http://www.w3.org/1999/xlink">
<g transform="translate(.5 .5)">
<g>
<path d="M20 30v20m10 -20v20m-10 -10h20"></path>
</g>
<path d="M40 40h10"></path>
<g class="terminal ">
<path d="M50 40h0"></path>
<path d="M121 40h0"></path>
<rect x="50" y="29" width="71" height="22" rx="10" ry="10"></rect>
<text x="85.5" y="44">update</text>
</g>
<path d="M121 40h10"></path>
<g>
<path d="M131 40h0"></path>
<path d="M233.5 40h0"></path>
<path d="M131 40h20"></path>
<g>
<path d="M151 40h62.5"></path>
</g>
<path d="M213.5 40h20"></path>
<path d="M131 40a10 10 0 0 1 10 10v0a10 10 0 0 0 10 10"></path>
<g class="terminal ">
<path d="M151 60h0"></path>
<path d="M213.5 60h0"></path>
<rect x="151" y="49" width="62.5" height="22" rx="10" ry="10"></rect>
<text x="182.25" y="64">using</text>
</g>
<path d="M213.5 60a10 10 0 0 0 10 -10v0a10 10 0 0 1 10 -10"></path>
</g>
<g>
<path d="M233.5 40h0"></path>
<path d="M356 40h0"></path>
<path d="M233.5 40a10 10 0 0 0 10 -10v0a10 10 0 0 1 10 -10"></path>
<g>
<path d="M253.5 20h82.5"></path>
</g>
<path d="M336 20a10 10 0 0 1 10 10v0a10 10 0 0 0 10 10"></path>
<path d="M233.5 40h20"></path>
<g>
<path d="M253.5 40h0"></path>
<path d="M336 40h0"></path>
<path d="M253.5 40h10"></path>
<g class="terminal ">
<path d="M263.5 40h0"></path>
<path d="M326 40h0"></path>
<rect x="263.5" y="29" width="62.5" height="22" rx="10" ry="10"></rect>
<text x="294.75" y="44">where</text>
</g>
<path d="M326 40h10"></path>
<path d="M263.5 40a10 10 0 0 0 -10 10v0a10 10 0 0 0 10 10"></path>
<g>
<path d="M263.5 60h62.5"></path>
</g>
<path d="M326 60a10 10 0 0 0 10 -10v0a10 10 0 0 0 -10 -10"></path>
</g>
<path d="M336 40h20"></path>
</g>
<path d="M356 40h10"></path>
<g class="terminal ">
<path d="M366 40h0"></path>
<path d="M411.5 40h0"></path>
<rect x="366" y="29" width="45.5" height="22" rx="10" ry="10"></rect>
<text x="388.75" y="44">set</text>
</g>
<path d="M411.5 40h10"></path>
<g>
<path d="M421.5 40h0"></path>
<path d="M558 40h0"></path>
<path d="M421.5 40a10 10 0 0 0 10 -10v0a10 10 0 0 1 10 -10"></path>
<g>
<path d="M441.5 20h96.5"></path>
</g>
<path d="M538 20a10 10 0 0 1 10 10v0a10 10 0 0 0 10 10"></path>
<path d="M421.5 40h20"></path>
<g class="terminal ">
<path d="M441.5 40h0"></path>
<path d="M538 40h0"></path>
<rect x="441.5" y="29" width="96.5" height="22" rx="10" ry="10"></rect>
<text x="489.75" y="44">returning</text>
</g>
<path d="M538 40h20"></path>
</g>
<path d="M 558 40 h 20 m -10 -10 v 20 m 10 -20 v 20"></path>
</g>
<style>
	svg {
		background-color: hsl(30,20%,95%);
	}
	path {
		stroke-width: 3;
		stroke: black;
		fill: rgba(0,0,0,0);
	}
	text {
		font: bold 14px monospace;
		text-anchor: middle;
		white-space: pre;
	}
	text.diagram-text {
		font-size: 12px;
	}
	text.diagram-arrow {
		font-size: 16px;
	}
	text.label {
		text-anchor: start;
	}
	text.comment {
		font: italic 12px monospace;
	}
	g.non-terminal text {
		/&#42;font-style: italic;&#42;/
	}
	rect {
		stroke-width: 3;
		stroke: black;
		fill: hsl(120,100%,90%);
	}
	rect.group-box {
		stroke: gray;
		stroke-dasharray: 10 5;
		fill: none;
	}
	path.diagram-text {
		stroke-width: 3;
		stroke: black;
		fill: white;
		cursor: help;
	}
	g.diagram-text:hover path.diagram-text {
		fill: #eee;
	}</style>
</svg>
